<svg width="120" height="40" viewBox="0 0 120 40" fill="none" xmlns="http://www.w3.org/2000/svg">
<rect x="0.5" y="0.5" width="119" height="39" rx="5.5" fill="black"/>
<rect x="0.5" y="0.5" width="119" height="39" rx="5.5" stroke="#A6A6A6"/>
<path d="M17.8048 19.4617L8.0896 30.0059C8.09051 30.0078 8.09051 30.0106 8.09142 30.0125C8.38981 31.1574 9.41179 32 10.6254 32C11.1108 32 11.5662 31.8656 11.9567 31.6305L11.9877 31.6118L22.9229 25.1593L17.8048 19.4617Z" fill="#EA4335"/>
<path d="M27.6331 17.6662L27.624 17.6597L22.9028 14.8612L17.5839 19.7013L22.9219 25.1582L27.6176 22.3878C28.4406 21.9324 29 21.045 29 20.0223C29 19.0052 28.4489 18.1225 27.6331 17.6662Z" fill="#FBBC04"/>
<path d="M8.08942 9.99331C8.03102 10.2135 8 10.4449 8 10.6838V29.3163C8 29.5552 8.03102 29.7866 8.09034 30.0059L18.1386 19.7313L8.08942 9.99331Z" fill="#4285F4"/>
<path d="M17.8766 19.9999L22.9044 14.8594L11.9819 8.38351C11.585 8.13996 11.1214 8 10.626 8C9.41237 8 8.38856 8.84447 8.09018 9.99034C8.09018 9.99127 8.08926 9.9922 8.08926 9.99314L17.8766 19.9999Z" fill="#34A853"/>
<path d="M42.957 11.278C42.957 12.232 42.639 13.03 42.003 13.672C41.361 14.32 40.575 14.644 39.645 14.644C38.709 14.644 37.923 14.32 37.287 13.672C36.651 13.03 36.333 12.232 36.333 11.278C36.333 10.324 36.651 9.526 37.287 8.884C37.923 8.236 38.709 7.912 39.645 7.912C40.581 7.912 41.367 8.239 42.003 8.893C42.639 9.535 42.957 10.33 42.957 11.278ZM37.179 11.278C37.179 12.022 37.413 12.637 37.881 13.123C38.355 13.609 38.943 13.852 39.645 13.852C40.347 13.852 40.932 13.609 41.4 13.123C41.874 12.643 42.111 12.028 42.111 11.278C42.111 10.528 41.874 9.913 41.4 9.433C40.932 8.947 40.347 8.704 39.645 8.704C38.943 8.704 38.355 8.947 37.881 9.433C37.413 9.919 37.179 10.534 37.179 11.278ZM44.7621 14.5H43.9341V8.056H44.9421L48.0741 13.069H48.1101L48.0741 11.827V8.056H48.9021V14.5H48.0381L44.7621 9.244H44.7261L44.7621 10.486V14.5ZM52.3967 8.848V14.5H51.5687V8.848H49.7687V8.056H54.1967V8.848H52.3967ZM55.0611 14.5V8.056H57.0321C58.0161 8.056 58.8051 8.353 59.3991 8.947C59.9991 9.541 60.2991 10.318 60.2991 11.278C60.2991 12.244 59.9991 13.024 59.3991 13.618C58.8051 14.206 58.0161 14.5 57.0321 14.5H55.0611ZM55.8891 8.848V13.708H57.0321C57.7821 13.708 58.3731 13.495 58.8051 13.069C59.2371 12.637 59.4531 12.04 59.4531 11.278C59.4531 10.522 59.2371 9.928 58.8051 9.496C58.3731 9.064 57.7821 8.848 57.0321 8.848H55.8891ZM65.0457 8.056V8.848H62.1117V10.891H64.7577V11.665H62.1117V13.708H65.0457V14.5H61.2837V8.056H65.0457ZM69.8607 8.056H70.9317V8.092L68.5377 10.855L71.0937 14.464V14.5H70.0767L67.9797 11.494L66.9897 12.637V14.5H66.1617V8.056H66.9897V11.377H67.0257L69.8607 8.056ZM74.5658 14.5H73.7378V8.056H74.5658V10.819H77.7878V8.056H78.6158V14.5H77.7878V11.593H74.5658V14.5ZM83.6698 8.056V8.848H80.7358V10.891H83.3818V11.665H80.7358V13.708H83.6698V14.5H79.9078V8.056H83.6698ZM86.9817 8.848V14.5H86.1537V8.848H84.3537V8.056H88.7817V8.848H86.9817ZM97.7568 11.278C97.7568 12.232 97.4388 13.03 96.8028 13.672C96.1608 14.32 95.3748 14.644 94.4448 14.644C93.5088 14.644 92.7228 14.32 92.0868 13.672C91.4508 13.03 91.1328 12.232 91.1328 11.278C91.1328 10.324 91.4508 9.526 92.0868 8.884C92.7228 8.236 93.5088 7.912 94.4448 7.912C95.3808 7.912 96.1668 8.239 96.8028 8.893C97.4388 9.535 97.7568 10.33 97.7568 11.278ZM91.9788 11.278C91.9788 12.022 92.2128 12.637 92.6808 13.123C93.1548 13.609 93.7428 13.852 94.4448 13.852C95.1468 13.852 95.7318 13.609 96.1998 13.123C96.6738 12.643 96.9108 12.028 96.9108 11.278C96.9108 10.528 96.6738 9.913 96.1998 9.433C95.7318 8.947 95.1468 8.704 94.4448 8.704C93.7428 8.704 93.1548 8.947 92.6808 9.433C92.2128 9.919 91.9788 10.534 91.9788 11.278ZM99.5619 11.89V14.5H98.7339V8.056H100.93C101.488 8.056 101.962 8.242 102.352 8.614C102.748 8.986 102.946 9.439 102.946 9.973C102.946 10.519 102.748 10.975 102.352 11.341C101.968 11.707 101.494 11.89 100.93 11.89H99.5619ZM99.5619 8.848V11.098H100.948C101.278 11.098 101.551 10.987 101.767 10.765C101.989 10.543 102.1 10.279 102.1 9.973C102.1 9.673 101.989 9.412 101.767 9.19C101.551 8.962 101.278 8.848 100.948 8.848H99.5619Z" fill="white"/>
<path d="M93.5181 30.9097H95.1469V19.8981H93.5181V30.9097ZM108.189 23.8646L106.322 28.6388H106.266L104.328 23.8646H102.573L105.479 30.5371L103.823 34.249H105.521L110 23.8646H108.189ZM98.9519 29.6588C98.4176 29.6588 97.6739 29.3902 97.6739 28.7234C97.6739 27.8742 98.6001 27.5483 99.4005 27.5483C100.116 27.5483 100.454 27.7042 100.889 27.9165C100.762 28.9365 99.892 29.6588 98.9519 29.6588ZM99.1483 23.6241C97.969 23.6241 96.7469 24.1482 96.2424 25.3101L97.6879 25.9188C97.9969 25.3101 98.5721 25.111 99.1762 25.111C100.019 25.111 100.875 25.621 100.889 26.5283V26.6411C100.594 26.471 99.9627 26.2165 99.1902 26.2165C97.632 26.2165 96.0451 27.0806 96.0451 28.6952C96.0451 30.1689 97.323 31.1184 98.7546 31.1184C99.8501 31.1184 100.454 30.6225 100.833 30.0411H100.889V30.8912H102.461V26.6692C102.461 24.7146 101.015 23.6241 99.1483 23.6241ZM89.0821 25.2053H86.7655V21.4308H89.0821C90.2998 21.4308 90.9911 22.4482 90.9911 23.3176C90.9911 24.1711 90.2998 25.2053 89.0821 25.2053ZM89.0402 19.8981H85.1375V30.9097H86.7655V26.7379H89.0402C90.8453 26.7379 92.6199 25.4184 92.6199 23.3176C92.6199 21.2168 90.8453 19.8981 89.0402 19.8981ZM67.7583 29.6606C66.6332 29.6606 65.6913 28.7102 65.6913 27.4047C65.6913 26.0852 66.6332 25.1198 67.7583 25.1198C68.8695 25.1198 69.7406 26.0852 69.7406 27.4047C69.7406 28.7102 68.8695 29.6606 67.7583 29.6606ZM69.6289 24.4812H69.5722C69.2064 24.0417 68.5038 23.6444 67.6178 23.6444C65.7611 23.6444 64.0599 25.2898 64.0599 27.4047C64.0599 29.5047 65.7611 31.1369 67.6178 31.1369C68.5038 31.1369 69.2064 30.7396 69.5722 30.2851H69.6289V30.8251C69.6289 32.2582 68.8695 33.0246 67.6457 33.0246C66.6471 33.0246 66.0282 32.3005 65.7751 31.6901L64.3549 32.2864C64.7626 33.28 65.8458 34.5 67.6457 34.5C69.5582 34.5 71.1757 33.3646 71.1757 30.5978V23.8708H69.6289V24.4812ZM72.3008 30.9097H73.9323V19.8973H72.3008V30.9097ZM76.3362 27.277C76.2943 25.8298 77.4474 25.0916 78.2766 25.0916C78.9243 25.0916 79.4725 25.4176 79.6549 25.8862L76.3362 27.277ZM81.3989 26.028C81.0899 25.1912 80.1472 23.6444 78.2208 23.6444C76.3083 23.6444 74.7196 25.1621 74.7196 27.3907C74.7196 29.4906 76.2943 31.1369 78.4032 31.1369C80.1053 31.1369 81.0899 30.0869 81.4976 29.4765L80.2319 28.6247C79.8103 29.2493 79.2333 29.6606 78.4032 29.6606C77.5739 29.6606 76.983 29.2774 76.6033 28.5261L81.5674 26.4534L81.3989 26.028ZM41.8501 24.7939V26.383H45.6184C45.5058 27.277 45.2107 27.9297 44.7612 28.3834C44.2121 28.9374 43.3541 29.5479 41.8501 29.5479C39.5291 29.5479 37.7152 27.6602 37.7152 25.3189C37.7152 22.9767 39.5291 21.0899 41.8501 21.0899C43.1018 21.0899 44.0157 21.5867 44.6905 22.2254L45.8017 21.104C44.8589 20.1959 43.6081 19.5 41.8501 19.5C38.6719 19.5 36 22.1117 36 25.3189C36 28.5261 38.6719 31.1369 41.8501 31.1369C43.5653 31.1369 44.8589 30.5688 45.8715 29.5047C46.9129 28.4547 47.2358 26.9793 47.2358 25.7866C47.2358 25.4176 47.2079 25.0775 47.1512 24.7939H41.8501ZM51.5208 29.6606C50.3957 29.6606 49.425 28.7243 49.425 27.3907C49.425 26.0421 50.3957 25.1198 51.5208 25.1198C52.6451 25.1198 53.6158 26.0421 53.6158 27.3907C53.6158 28.7243 52.6451 29.6606 51.5208 29.6606ZM51.5208 23.6444C49.4669 23.6444 47.7936 25.2194 47.7936 27.3907C47.7936 29.5479 49.4669 31.1369 51.5208 31.1369C53.5739 31.1369 55.2472 29.5479 55.2472 27.3907C55.2472 25.2194 53.5739 23.6444 51.5208 23.6444ZM59.65 29.6606C58.5249 29.6606 57.5542 28.7243 57.5542 27.3907C57.5542 26.0421 58.5249 25.1198 59.65 25.1198C60.7752 25.1198 61.745 26.0421 61.745 27.3907C61.745 28.7243 60.7752 29.6606 59.65 29.6606ZM59.65 23.6444C57.597 23.6444 55.9237 25.2194 55.9237 27.3907C55.9237 29.5479 57.597 31.1369 59.65 31.1369C61.7031 31.1369 63.3764 29.5479 63.3764 27.3907C63.3764 25.2194 61.7031 23.6444 59.65 23.6444Z" fill="white"/>
</svg>

