<?xml version="1.0" encoding="UTF-8"?><svg id="Laag_2" xmlns="http://www.w3.org/2000/svg" viewBox="0 0 795.18 494.87"><defs><style>.cls-1{fill:blue;stroke-width:0px;}</style></defs><g id="Laag_1-2"><path class="cls-1" d="m316.83,110.9c19.52,16.45,48.8-3.74,48.8-34.39,0-14.95-6.44-42.12-39.67-42.12-35.93,0-54.62,31.15-54.62,54.33,0,11.96,4.57,22.93,4.57,22.93l-24.3,21.93s-11.01-20.19-11.01-44.11c0-33.39,21.6-89.47,85.15-89.47,55.45,0,74.97,43.11,74.97,75.51s-18.28,65.29-49.63,71.52c12.05,11.96,11.01,31.15,8.93,46.35l-5.19,35.39c-1.45,17.69,9.59,25.1,32.69,23.75l-9.51,29.89c-36.34,8.22-63.26-19.75-59.31-51.65l4.36-31.9c4.78-28.41,4.98-45.6-6.02-55.32-6.44-2.49-11.01-5.23-9.76-4.49l-25.96,76.76h-36.76l45.27-134.57c5.81-17.2,20.98-37.38,43.61-37.38l6.65,23.18s-10.8,5.98-16.2,22.68l-7.06,21.18Zm200.61,50.52c-14.12,29.9-40.08,62.55-82.03,62.55-31.36,0-46.31-18.44-46.31-46.35,0-32.15,19.73-89.47,67.49-89.47,24.51,0,47.56,17.44,33.85,55.32-7.89,21.18-24.3,38.38-66.46,31.65,0,0-4.15,13.53,22.22,13.53,21.6,0,44.24-6.55,58.77-37.95,4.78.5,10.59,5.73,12.46,10.72Zm-87.22-10.22c18.69,3.74,24.51-5.73,28.24-16.95,1.45-4.49,3.32-11.21-3.74-11.21-14.33,0-24.51,28.16-24.51,28.16Zm215.98,2.06c-16.2,33.89-36.76,62.55-63.34,62.55-22.64,0-26.17-20.93-26.17-20.93,0,0-14.95,20.93-33.64,20.93-16.41,0-24.71-15.45-24.71-34.14,0-26.66,17.03-101.68,57.94-101.68,21.18,0,26.17,20.19,26.17,20.19l5.81-16.95h36.76l-24.71,73.77c-9.76,29.16-5.81,31.65-2.7,31.65,7.68,0,20.98-14.7,36.14-46.1,4.78.5,10.59,5.73,12.46,10.72Zm-85.36,11.46l12.25-36.14s-.42-12.71-8.93-12.71c-15.58,0-29.91,41.37-29.91,56.07,0,6.48,2.49,8.72,6.65,8.72,11.21,0,19.94-15.95,19.94-15.95Zm150.36-11.46c-15.58,33.14-37.38,62.55-62.1,62.55-19.52,0-33.85-19.44-18.69-64.54l39.46-117.38h36.76l-41.33,123.11c-9.55,28.66-6.02,31.65-2.7,31.65,7.68,0,21.18-14.7,36.14-46.1,4.78.5,10.59,5.73,12.46,10.72Zm-576.62,106.36c11.84-10.97,27.62-17.69,38-17.69,13.29,0,20.56,11.71,21.39,24.92,14.54-16.7,33.44-24.92,44.86-24.92,14.12,0,20.98,12.96,20.98,27.41,0,8.72-2.7,19.69-7.68,34.64l-42.99,127.59c-4.36,14.46-4.15,23.43,8.1,30.4l-11.01,32.9c-35.72-12.96-40.29-42.37-31.57-70.53l34.68-102.92c5.19-15.2,9.55-27.91,9.55-33.14,0-3.49-2.08-5.48-4.98-5.48-6.23,0-18.07,8.22-28.66,22.68l-43.4,129.84h-36.76l38.21-113.89c5.19-15.2,9.55-27.91,9.55-33.14,0-3.49-2.08-5.48-5.19-5.48-6.02,0-16.82,7.72-27.62,20.68l-44.03,131.83h-36.76l51.5-153.51c-33.85,12.46-59.81,18.94-59.81,36.63,0,11.71,10.38,12.71,13.91,12.71v35.89C18.28,367.03-.21,348.34,0,319.93,0,268.34,52.75,261.62,104.67,239.69l29.91,19.94Zm257.52,113.14c-16.2,33.89-36.76,62.55-63.34,62.55-22.64,0-26.17-20.93-26.17-20.93,0,0-14.95,20.93-33.64,20.93-16.41,0-24.71-15.45-24.71-34.14,0-26.66,17.03-101.68,57.94-101.68,21.18,0,26.17,20.19,26.17,20.19l5.81-16.95h36.76l-24.71,73.77c-9.76,29.16-5.81,31.65-2.7,31.65,7.68,0,20.98-14.7,36.14-46.1,4.78.5,10.59,5.73,12.46,10.72Zm-85.36,11.46l12.25-36.14s-.42-12.71-8.93-12.71c-15.58,0-29.91,41.37-29.91,56.07,0,6.48,2.49,8.72,6.65,8.72,11.21,0,19.94-15.95,19.94-15.95Zm153.89-11.46c-15.16,32.15-36.55,62.55-63.96,62.55-21.6,0-35.3-19.94-20.35-64.54l22.84-68.03h-16.61l7.68-22.18h16.2l9.35-27.16h36.76l-9.35,27.16h16.2l-7.68,22.18h-15.78l-24.71,73.77c-9.55,28.41-5.19,31.9-.83,31.9,9.55,0,22.84-15.95,37.8-46.35,4.78.5,10.59,5.73,12.46,10.72Zm111.93,0c-13.91,29.91-39.87,62.55-81.82,62.55-31.57,0-46.52-18.44-46.52-46.35,0-32.65,20.14-89.47,67.29-89.47,31.78,0,46.93,25.67,28.24,70.28h-36.76c11.84-29.16,13.29-35.64,6.65-35.64-16.82,0-30.53,39.87-30.53,55.82,0,17.44,15.99,18.19,22.43,18.19,21.6,0,43.82-14.7,58.56-46.1,4.78.5,10.59,5.73,12.46,10.72Zm127.09,0c-16.82,35.14-36.97,62.55-63.55,62.55-23.26,0-30.94-22.68-16.61-66.04l1.45-3.99c4.15-12.71,7.27-21.43,7.27-25.17,0-3.24-2.28-5.23-5.61-5.23-4.78,0-14.33,5.48-22.84,17.2l-27,80h-36.76l60.23-178.68h36.76l-20.97,62.55s16.61-16.45,35.93-16.45c14.33,0,21.18,9.22,21.18,22.43,0,6.73-1.87,14.45-6.23,27.41l-9.14,27.16c-9.55,28.16-6.23,31.65-2.7,31.65,7.68,0,21.18-14.7,36.13-46.1,4.78.5,10.59,5.73,12.46,10.72Zm-12.46-10.72c4.15-8.97,9.76-22.43,15.78-38.38-3.74-4.73-6.44-8.72-6.44-14.95,0-12.96,11.21-27.16,19.73-30.4l14.12,8.97-6.02,19.19c8.51,8.47,42.28,3.12,43.63,20.78.23,2.98-7.08,29.06-8.95,34.79l-4.57,14.2c-9.55,27.91-4.78,31.9-1.87,31.9,4.98,0,14.54-14.2,30.11-46.1,4.78.5,10.59,5.73,12.46,10.72-15.78,33.14-32.81,62.55-56.9,62.55-15.99,0-35.72-14.2-20.77-58.56l6.44-19.44c1.66-4.98,6-16.58,6-17.83,0-4.98-8.91-.36-14.31-6.1-5.61,16.45-10.59,27.91-15.99,39.37-4.78-.5-10.59-5.73-12.46-10.72Z"/></g></svg>