<?xml version="1.0" encoding="UTF-8"?>
<svg id="Laag_1" data-name="Laag 1" xmlns="http://www.w3.org/2000/svg" viewBox="0 0 465.64 63.91">
  <defs>
    <style>
      .cls-1 {
        fill: #1d1d1b;
      }
    </style>
  </defs>
  <path class="cls-1" d="M0,50.27V13.36h4.39l1.09,4.64c3.54-3.09,7.39-4.64,11.57-4.64,5.34,0,8.99,1.69,10.93,5.06,4.01-3.38,8.07-5.06,12.2-5.06,8.48,0,12.73,4.68,12.73,14.03v22.89h-6.5v-23.24c0-5.51-2.32-8.26-6.96-8.26-3.47,0-6.71,1.59-9.74,4.78v26.72h-6.5v-23.13c0-5.58-2.3-8.37-6.89-8.37-3.66,0-6.93,1.59-9.81,4.78v26.72H0Z"/>
  <path class="cls-1" d="M54.57,13.36h7.07l10.44,28.83,10.79-28.83h6.89l-15.33,38c-2.72,6.7-6.8,10.89-12.23,12.55l-2.5-4.61c4.12-1.81,7.12-4.75,9-8.82l-14.13-37.12Z"/>
  <path class="cls-1" d="M102.75,0v42.19h19.97v8.09h-29.29V0h9.32Z"/>
  <path class="cls-1" d="M142.07,13.36c11.2,0,16.8,5.72,16.8,17.16,0,1.52-.11,3.05-.32,4.57h-24.5c0,5.2,3.82,7.8,11.46,7.8,3.73,0,7.45-.35,11.18-1.05v7.38c-3.26.7-7.22,1.05-11.88,1.05-13.38,0-20.07-6.29-20.07-18.88s5.78-18.04,17.33-18.04ZM134.05,28.62h15.75v-.28c0-5.11-2.58-7.66-7.73-7.66s-7.59,2.65-8.02,7.95Z"/>
  <path class="cls-1" d="M160.76,38.78c0-7.34,5.34-11,16.03-11,2.51,0,5.02.23,7.52.7v-2.78c0-3.3-2.38-4.96-7.14-4.96-4.03,0-8.51.59-13.43,1.76v-7.38c4.92-1.17,9.4-1.76,13.43-1.76,10.97,0,16.45,4.06,16.45,12.16v24.75h-5.41l-3.3-3.3c-3.21,2.2-6.75,3.3-10.62,3.3-9.02,0-13.54-3.83-13.54-11.5ZM176.79,34.1c-4.48,0-6.71,1.52-6.71,4.57,0,3.28,1.88,4.92,5.62,4.92,3.09,0,5.96-.96,8.61-2.88v-5.91c-2.34-.47-4.85-.7-7.52-.7Z"/>
  <path class="cls-1" d="M199.16,48.52v-7.73c4.1,1.64,8.84,2.46,14.2,2.46,4.01,0,6.01-1.29,6.01-3.87s-1.35-3.69-4.04-3.69h-6.68c-7.5,0-11.25-3.69-11.25-11.07s5.47-11.6,16.42-11.6c4.64,0,9.01.7,13.11,2.11v7.73c-4.1-1.64-8.55-2.46-13.36-2.46s-7.56,1.29-7.56,3.87,1.46,3.69,4.39,3.69h5.98c8.2,0,12.3,3.69,12.3,11.07s-5.23,11.6-15.68,11.6c-5.13,0-9.75-.7-13.85-2.11Z"/>
  <path class="cls-1" d="M247.79,13.36c11.2,0,16.8,5.72,16.8,17.16,0,1.52-.11,3.05-.32,4.57h-24.5c0,5.2,3.82,7.8,11.46,7.8,3.73,0,7.45-.35,11.18-1.05v7.38c-3.26.7-7.22,1.05-11.88,1.05-13.38,0-20.07-6.29-20.07-18.88s5.78-18.04,17.33-18.04ZM239.77,28.62h15.75v-.28c0-5.11-2.58-7.66-7.73-7.66s-7.59,2.65-8.02,7.95Z"/>
  <path class="cls-1" d="M274.76,50.27h-9.56L286.54,0h10.02l21.8,50.27h-10.02l-5.73-13.71h-16.7l3.2-8.09h10.12l-7.91-18.88-16.56,40.68Z"/>
  <path class="cls-1" d="M351.88,48.06c-5.65,1.48-11.17,2.21-16.56,2.21-11.93,0-17.89-6.4-17.89-19.2,0-11.81,5.84-17.72,17.51-17.72,2.48,0,5.03.59,7.63,1.76V0h9.32v48.06ZM342.56,22.99c-1.92-1.27-4.34-1.9-7.24-1.9-5.79,0-8.68,3.25-8.68,9.74,0,7.71,3.01,11.57,9.04,11.57,2.44,0,4.73-.34,6.89-1.02v-18.39Z"/>
  <path class="cls-1" d="M357.43,50.27V13.36h7.21l1.09,5.34c3.3-3.56,7.28-5.34,11.92-5.34s7.82,1.69,9.53,5.06c3.77-3.38,7.72-5.06,11.85-5.06,8.48,0,12.73,4.68,12.73,14.03v22.89h-9.32v-23.24c0-4.1-1.85-6.15-5.55-6.15-2.77,0-5.43,1.24-7.98,3.73v25.66h-9.32v-23.13c0-4.17-1.71-6.26-5.13-6.26-2.72,0-5.29,1.24-7.7,3.73v25.66h-9.32Z"/>
  <path class="cls-1" d="M426.54,0v7.38h-9.32V0h9.32ZM426.54,13.36v36.91h-9.32V13.36h9.32Z"/>
  <path class="cls-1" d="M432.06,50.27V13.36h7.21l1.16,5.41c3.54-3.61,7.57-5.41,12.09-5.41,8.74,0,13.11,4.55,13.11,13.64v23.27h-9.32v-23.27c0-4.08-2.03-6.12-6.08-6.12-3.02,0-5.98,1.21-8.86,3.62v25.77h-9.32Z"/>
</svg>