<?xml version="1.0" encoding="UTF-8"?>
<svg id="Laag_2" data-name="Laag 2" xmlns="http://www.w3.org/2000/svg" viewBox="0 0 370.08 122.4">
  <defs>
    <style>
      .cls-1 {
        fill: red;
      }
    </style>
  </defs>
  <path class="cls-1" d="M11.03,52.17c-.26-.51-.52-.98-.8-1.41-.28-.43-.62-.81-1.03-1.15-.41-.33-.91-.66-1.49-.99-.59-.33-1.34-.7-2.25-1.11L.1,45.29v-4.82h42.5v4.82l-11.08,3.06,14.68,35.93,3.82,9.94h.23l17.05-45.1-10.78-3.82v-4.82h30.35v4.82l-5.43,2.9c-1.38.71-2.48,1.39-3.33,2.03-.84.64-1.49,1.54-1.95,2.71l-19.72,47.24-8.33,16.28h-9.63L11.03,52.17Z"/>
  <path class="cls-1" d="M113.03,117.6c-5.66,0-10.82-.84-15.48-2.52s-8.69-4.18-12.08-7.49c-3.39-3.31-6.01-7.4-7.87-12.27-1.86-4.87-2.79-10.48-2.79-16.86,0-5.35.89-10.46,2.68-15.33,1.78-4.87,4.34-9.14,7.68-12.8,3.34-3.67,7.42-6.6,12.23-8.79,4.82-2.19,10.26-3.29,16.32-3.29,5.25,0,9.89.85,13.91,2.56,4.03,1.71,7.4,3.94,10.13,6.69,2.73,2.75,4.8,5.91,6.23,9.48,1.43,3.57,2.14,7.19,2.14,10.85,0,.46-.01,1.1-.04,1.91-.03.82-.06,1.64-.11,2.48-.05.84-.1,1.64-.15,2.41-.05.76-.1,1.33-.15,1.68h-48.92c.05,9.43,2.09,16.6,6.12,21.52,4.03,4.92,10.24,7.38,18.65,7.38,2.75,0,5.25-.24,7.49-.73,2.24-.48,4.28-1.08,6.12-1.8,1.83-.71,3.48-1.48,4.93-2.29,1.45-.82,2.74-1.53,3.86-2.14h2.06v6.42c-1.73,1.48-3.8,2.98-6.19,4.51-2.4,1.53-5,2.92-7.8,4.17-2.8,1.25-5.81,2.27-9.02,3.06-3.21.79-6.52,1.18-9.94,1.18ZM124.57,69.14c0-3.26-.18-6.28-.54-9.06-.36-2.78-1.01-5.17-1.95-7.19-.94-2.01-2.22-3.59-3.82-4.74-1.61-1.15-3.61-1.72-6-1.72s-4.43.52-6.27,1.57c-1.83,1.04-3.38,2.54-4.62,4.47-1.25,1.94-2.23,4.32-2.94,7.15-.71,2.83-1.17,6-1.38,9.52h27.52Z"/>
  <path class="cls-1" d="M140.87,111.1l7.87-2.68c.97-.36,1.77-.88,2.41-1.57.64-.69.96-1.59.96-2.71v-47.47c0-1.27-.36-2.34-1.07-3.21-.71-.87-1.86-1.58-3.44-2.14l-6.73-2.52v-4.13l31.8-5.73v12.46h.15c2.04-2.85,4.09-5.15,6.15-6.88,2.06-1.73,4.13-3.06,6.19-3.98,2.06-.92,4.09-1.53,6.08-1.83s3.97-.46,5.96-.46c3.41,0,6.59.51,9.52,1.53,2.93,1.02,5.49,2.6,7.68,4.74,2.19,2.14,3.9,4.89,5.12,8.26,1.22,3.36,1.83,7.39,1.83,12.08v38.99c0,1.27.33,2.27.99,2.98.66.71,1.45,1.25,2.37,1.61l6.88,2.68v4.82h-41.59v-4.82l6.96-2.68c.87-.36,1.63-.89,2.29-1.61.66-.71.99-1.71.99-2.98v-31.65c0-3.41-.15-6.42-.46-9.02-.31-2.6-.92-4.76-1.84-6.5-.92-1.73-2.22-3.06-3.9-3.98-1.68-.92-3.92-1.38-6.73-1.38-1.17,0-2.41.05-3.71.15-1.3.1-2.57.37-3.82.8-1.25.43-2.45,1.07-3.59,1.91s-2.15,1.98-3.02,3.4v46.55c0,1.17.33,2.06.99,2.68.66.61,1.45,1.15,2.37,1.61l6.04,2.68v4.82h-41.74v-4.82Z"/>
  <path class="cls-1" d="M254.41,117.45c-4.59,0-8.69-.92-12.31-2.75-3.62-1.83-6.69-4.4-9.21-7.68-2.52-3.29-4.46-7.16-5.81-11.62-1.35-4.46-2.03-9.34-2.03-14.64,0-5.86.8-11.36,2.41-16.51s3.91-9.64,6.92-13.49c3.01-3.85,6.69-6.89,11.05-9.14,4.36-2.24,9.34-3.36,14.95-3.36,2.19,0,4.2.22,6.04.65,1.83.43,3.48,1.01,4.93,1.72,1.45.71,2.78,1.53,3.98,2.45,1.2.92,2.25,1.86,3.17,2.83l-.08-3.67v-24.23c0-1.32-.31-2.42-.92-3.29-.61-.87-1.79-1.58-3.52-2.14l-8.56-2.75v-4.13L299.51-.05v99.53c0,1.27.31,2.34.92,3.21.61.87,1.81,1.55,3.59,2.06l7.34,2.29v4.13l-30.96,6.27h-1.3v-12.84h-.23c-2.19,3.06-4.46,5.44-6.8,7.15-2.34,1.71-4.6,2.98-6.77,3.82-2.17.84-4.19,1.36-6.08,1.57-1.89.2-3.49.31-4.82.31ZM265.19,104.45c.97,0,2.05-.05,3.25-.15,1.2-.1,2.41-.36,3.63-.76,1.22-.41,2.39-.98,3.52-1.72,1.12-.74,2.06-1.75,2.83-3.02v-47.01c-.76-.56-1.71-1.06-2.83-1.49-1.12-.43-2.27-.79-3.44-1.07-1.17-.28-2.34-.5-3.52-.65-1.17-.15-2.24-.23-3.21-.23-3.11,0-5.8.71-8.06,2.14-2.27,1.43-4.17,3.35-5.7,5.77-1.53,2.42-2.65,5.27-3.36,8.56-.71,3.29-1.07,6.79-1.07,10.51,0,4.38.33,8.36.99,11.93.66,3.57,1.72,6.64,3.17,9.21,1.45,2.57,3.31,4.55,5.58,5.92,2.27,1.38,5.01,2.06,8.22,2.06Z"/>
  <path class="cls-1" d="M303.43,111.1l8.03-2.68c.92-.31,1.71-.81,2.37-1.53.66-.71.99-1.63.99-2.75v-46.78c0-.76-.08-1.45-.23-2.06-.15-.61-.41-1.15-.76-1.6-.36-.46-.8-.88-1.34-1.26-.54-.38-1.24-.73-2.1-1.03l-7.57-2.6v-4.13l32.18-5.73v16.82h.15c1.32-2.19,2.73-4.33,4.2-6.42,1.48-2.09,3.12-3.95,4.93-5.58,1.81-1.63,3.81-2.96,6-3.98,2.19-1.02,4.69-1.53,7.49-1.53,1.43,0,2.7.06,3.82.19,1.12.13,2.15.31,3.1.54.94.23,1.85.51,2.71.84.87.33,1.76.68,2.68,1.03v23.24h-7.8l-3.13-5.73c-.21-.46-.6-.89-1.19-1.3-.59-.41-1.24-.78-1.95-1.11-.71-.33-1.48-.59-2.29-.76-.82-.18-1.61-.27-2.37-.27-1.48,0-2.88.09-4.2.27-1.33.18-2.63.52-3.9,1.03-1.28.51-2.51,1.22-3.71,2.14-1.2.92-2.41,2.14-3.63,3.67v42.12c0,1.17.31,2.12.92,2.83s1.43,1.2,2.45,1.45l9.63,2.68v4.82h-45.48v-4.82Z"/>
</svg>
